# xmcd
#
# Track frame offsets: 
#        150
#        32947
#        52332
#        71922
#        86720
#        98403
#        127592
#        144120
#        157791
#        167793
#        188067
#        211701
#        219248
#        228300
#
# Disc length: 3279 seconds
#
# Revision: 1
# Processed by: cddbd v1.5PL3 Copyright (c) Steve Scherf et al.
# Submitted via: ExactAudioCopy v0.95a5
#
DISCID=b30ccd0e
DTITLE=John B. Arnold - Logorythms
DYEAR=2004
DGENRE=Drum and Bass
TTITLE0=Punishment Square
TTITLE1=Impressionist Techno
TTITLE2=Metropolitan Techno
TTITLE3=Access Denied
TTITLE4=Interval 1
TTITLE5=Nu House
TTITLE6=Techno 2
TTITLE7=Static
TTITLE8=The Second Thing
TTITLE9=Slow Motion
TTITLE10=The Evolution Theory
TTITLE11=Interval 2
TTITLE12=Interval dB
TTITLE13=Delirium
EXTD=YEAR: 2004
EXTT0=
EXTT1=
EXTT2=
EXTT3=
EXTT4=
EXTT5=
EXTT6=
EXTT7=
EXTT8=
EXTT9=
EXTT10=
EXTT11=
EXTT12=
EXTT13=
PLAYORDER=
